#define bat_low_01_width 9
#define bat_low_01_height 8
static unsigned char bat_low_01_bits[] = {
   0x00, 0x00, 0xff, 0x00, 0x81, 0x00, 0x8d, 0x01, 0x8d, 0x01, 0x81, 0x00,
   0xff, 0x00, 0x00, 0x00 };
