#define net_down_width 8
#define net_down_height 8
static unsigned char net_down_bits[] = {
   0x22, 0x14, 0x08, 0x14, 0x22, 0x7f, 0x55, 0x7f };
