#define screenshot_width 9
#define screenshot_height 9
static unsigned char screenshot_bits[] = {
   0x00, 0x00, 0x38, 0x00, 0x7c, 0x00, 0xff, 0x01, 0x01, 0x01, 0x39, 0x01,
   0x39, 0x01, 0x01, 0x01, 0xff, 0x01 };
