#define todo_width 8
#define todo_height 8
static unsigned char todo_bits[] = {
   0xff, 0x81, 0xc1, 0xa9, 0x95, 0x83, 0x81, 0xff };
