#define twitter_width 8
#define twitter_height 8
static unsigned char twitter_bits[] = {
   0x04, 0x04, 0x3c, 0x04, 0x04, 0x04, 0x04, 0x3c };
