#define todo_quick_note_width 9
#define todo_quick_note_height 9
static unsigned char todo_quick_note_bits[] = {
   0xff, 0x01, 0x01, 0x01, 0x7d, 0x01, 0x45, 0x01, 0x55, 0x01, 0x45, 0x01,
   0x7d, 0x01, 0x01, 0x01, 0xff, 0x01 };
