#define bat_full_01_width 9
#define bat_full_01_height 8
static unsigned char bat_full_01_bits[] = {
   0x00, 0x00, 0xff, 0x00, 0x81, 0x00, 0xbd, 0x01, 0xbd, 0x01, 0x81, 0x00,
   0xff, 0x00, 0x00, 0x00 };
