#define net_signal_low_width 9
#define net_signal_low_height 9
static unsigned char net_signal_low_bits[] = {
   0xff, 0x01, 0x01, 0x01, 0x05, 0x01, 0x05, 0x01, 0x05, 0x01, 0x05, 0x01,
   0x05, 0x01, 0x01, 0x01, 0xff, 0x01 };
