#define net_signal_full_width 9
#define net_signal_full_height 9
static unsigned char net_signal_full_bits[] = {
   0xff, 0x01, 0x01, 0x01, 0x55, 0x01, 0x55, 0x01, 0x55, 0x01, 0x55, 0x01,
   0x55, 0x01, 0x01, 0x01, 0xff, 0x01 };
