#define net_signal_medium_width 9
#define net_signal_medium_height 9
static unsigned char net_signal_medium_bits[] = {
   0xff, 0x01, 0x01, 0x01, 0x15, 0x01, 0x15, 0x01, 0x15, 0x01, 0x15, 0x01,
   0x15, 0x01, 0x01, 0x01, 0xff, 0x01 };
