#define net_connecting_width 8
#define net_connecting_height 8
static unsigned char net_connecting_bits[] = {
   0xff, 0x7e, 0x3c, 0x18, 0x18, 0x3c, 0x7e, 0xff };
