#define russian_width 9
#define russian_height 9
static unsigned char russian_bits[] = {
   0xff, 0x01, 0x01, 0x01, 0x7d, 0x01, 0x45, 0x01, 0x7d, 0x01, 0x15, 0x01,
   0x75, 0x01, 0x01, 0x01, 0xff, 0x01 };
