#define time_width 8
#define time_height 8
static unsigned char time_bits[] = {
   0xff, 0x89, 0x89, 0x89, 0x91, 0xa1, 0x81, 0xff };
