#define wifimed_backup_28_11_2012_width 2
#define wifimed_backup_28_11_2012_height 8
static unsigned char wifimed_backup_28_11_2012_bits[] = {
   0x00, 0x02, 0x02, 0x02, 0x02, 0x02, 0x02, 0x00 };
