#define wifilow_backup_28_11_2012_width 4
#define wifilow_backup_28_11_2012_height 8
static unsigned char wifilow_backup_28_11_2012_bits[] = {
   0x00, 0x00, 0x08, 0x0b, 0x0b, 0x08, 0x00, 0x00 };
